<svg width="23" height="23" viewBox="0 0 23 23" fill="none" xmlns="http://www.w3.org/2000/svg">
<path d="M0.793588 22.207C0.866145 22.2796 0.952308 22.3372 1.04715 22.3766C1.14199 22.4159 1.24365 22.4361 1.34632 22.4361C1.44899 22.4361 1.55065 22.4159 1.64549 22.3766C1.74034 22.3372 1.8265 22.2796 1.89906 22.207L11.5006 12.6054L21.1061 22.207C21.2527 22.3536 21.4515 22.4359 21.6588 22.4359C21.8661 22.4359 22.065 22.3536 22.2116 22.207C22.3582 22.0604 22.4405 21.8616 22.4405 21.6542C22.4405 21.4469 22.3582 21.2481 22.2116 21.1015L12.6061 11.4999L22.2077 1.89448C22.3542 1.74788 22.4366 1.54906 22.4366 1.34174C22.4366 1.13443 22.3542 0.935603 22.2077 0.789009C22.0611 0.642414 21.8622 0.560059 21.6549 0.560059C21.4476 0.560059 21.2488 0.642414 21.1022 0.789009L11.5006 10.3945L1.89515 0.792915C1.7457 0.664926 1.55345 0.598046 1.35683 0.605641C1.16021 0.613235 0.97369 0.694745 0.834554 0.833881C0.695418 0.973017 0.613908 1.15953 0.606314 1.35615C0.598719 1.55278 0.665599 1.74502 0.793588 1.89448L10.3952 11.4999L0.793588 21.1054C0.648079 21.2518 0.566406 21.4498 0.566406 21.6562C0.566406 21.8626 0.648079 22.0606 0.793588 22.207Z" fill="black"/>
</svg>
